<?xml version="1.0" encoding="UTF-8"?>
<svg version="1.1" xmlns="http://www.w3.org/2000/svg" width="512" height="512">
<path d="M0 0 C40.92 0 81.84 0 124 0 C126.52937669 5.69109754 128.94062531 11.27993895 131.08203125 17.10546875 C131.36830383 17.87678131 131.65457642 18.64809387 131.94952393 19.44277954 C132.90656735 22.02335497 133.8594934 24.60543132 134.8125 27.1875 C135.5100523 29.07066149 136.20789707 30.95371466 136.90600586 32.83666992 C138.44075129 36.97748804 139.97384282 41.11891368 141.50585938 45.26074219 C144.11903788 52.32399625 146.73874685 59.38481961 149.359375 66.4453125 C150.29778748 68.97370777 151.23617723 71.50211148 152.17456055 74.03051758 C152.41067393 74.66669793 152.64678732 75.30287828 152.89005566 75.95833683 C155.59586453 83.24912621 158.29990479 90.54057139 161.00390625 97.83203125 C162.00666516 100.53597303 163.00943258 103.23991164 164.01220703 105.94384766 C164.3840457 106.94649391 164.3840457 106.94649391 164.76339626 107.96939564 C167.43427094 115.171167 170.10575304 122.37271299 172.77734375 129.57421875 C173.01365383 130.21121515 173.24996391 130.84821156 173.49343491 131.50451088 C174.92353244 135.35946644 176.35364769 139.21441542 177.7837677 143.06936264 C179.94311407 148.88998087 182.10242492 154.71061228 184.26171875 160.53125 C184.49931034 161.17170446 184.73690193 161.81215893 184.98169327 162.4720211 C188.06660178 170.78776438 191.15119759 179.10362356 194.23547363 187.41960144 C196.12078806 192.50287868 198.00621391 197.58611459 199.8916626 202.66934204 C200.83892161 205.22318275 201.78614288 207.77703747 202.7333374 210.3309021 C208.31304623 225.37490703 213.89726099 240.41722625 219.48828125 255.45703125 C231.76754635 288.48983177 244.01133879 321.53503423 256.17720032 354.6098175 C259.22707881 362.90115394 262.28054919 371.19116121 265.3359375 379.48046875 C266.2303062 381.90698234 267.12467469 384.33349601 268.01904297 386.76000977 C268.46052673 387.9578006 268.9020105 389.15559143 269.35687256 390.38967896 C274.90083393 405.43181605 280.44192383 420.47499487 285.96875 435.5234375 C286.36703003 436.60752396 286.76531006 437.69161041 287.17565918 438.80854797 C289.09520181 444.03442646 291.01223274 449.26119911 292.92382812 454.48999023 C296.01499993 462.93766763 299.12055588 471.37539945 302.375 479.76171875 C302.8652671 481.03651465 303.35527026 482.3114121 303.8449707 483.58642578 C304.69803585 485.79518038 305.56483303 487.99871791 306.44995117 490.19482422 C308.70070702 496.04367246 309.53864344 499.86490272 308 506 C307.01 507.98 306.02 509.96 305 512 C272 512 239 512 205 512 C201.76430467 504.88147028 198.64667937 497.81954252 195.7734375 490.5625 C195.36492554 489.53773056 194.95641357 488.51296112 194.53552246 487.45713806 C193.63016798 485.18563035 192.72594234 482.91367248 191.82269287 480.6413269 C189.50075924 474.80105543 187.17110058 468.96387038 184.84109879 463.12681389 C184.2535387 461.65485873 183.6660643 460.18286937 183.0786705 458.71084785 C173.39055166 434.43446218 163.62637076 410.18852591 153.875 385.9375 C150.22629575 376.86338848 146.57772257 367.78922432 142.9296875 358.71484375 C142.49065975 357.62280514 142.051632 356.53076653 141.59930038 355.40563583 C136.129094 341.79805744 130.66942348 328.18636147 125.22782516 314.56731987 C119.74231038 300.83992469 114.23210052 287.12248619 108.71875 273.40625 C108.26456821 272.27631182 107.81038643 271.14637363 107.34244156 269.9821949 C104.06202982 261.82130159 100.78107146 253.66062809 97.5 245.5 C93.76005257 236.19806301 90.02032764 226.89603666 86.28125 217.59375 C85.82640732 216.46217972 85.37156464 215.33060944 84.90293884 214.16474915 C79.32003588 200.2743788 73.74681726 186.38022527 68.19229126 172.47848511 C62.71863377 158.78069674 57.22019526 145.09289861 51.71875 131.40625 C51.26451157 130.2761702 50.81027313 129.14609039 50.3422699 127.98176575 C47.06191542 119.82101547 43.78101399 111.66048514 40.5 103.5 C37.21746077 95.3357213 33.93506633 87.17138445 30.65319824 79.00683594 C29.74202668 76.74005448 28.83081281 74.47329002 27.91955566 72.20654297 C23.50955218 61.23611449 19.10182825 50.26481372 14.71484375 39.28515625 C14.38887962 38.4694239 14.0629155 37.65369156 13.72707367 36.81324005 C12.25733081 33.13435526 10.78878411 29.45500022 9.3223877 25.77478027 C8.8133073 24.49891218 8.30415493 23.2230728 7.79492188 21.94726562 C7.32755615 20.77591064 6.86019043 19.60455566 6.37866211 18.39770508 C4.60899026 14.03635868 2.75894451 9.71093529 0.88391113 5.3939209 C0 3 0 3 0 0 Z " fill="#000000" transform="translate(1,0)"/>
<path d="M0 0 C40.26 0 80.52 0 122 0 C121.23852895 3.80735523 120.44858599 6.67672042 119.02001953 10.20288086 C118.59155731 11.26728897 118.16309509 12.33169708 117.72164917 13.42835999 C117.23858307 14.61602463 116.75551697 15.80368927 116.2578125 17.02734375 C115.73157487 18.33070513 115.20580653 19.63425606 114.68045044 20.93797302 C113.47762605 23.9214273 112.27244628 26.90391768 111.06604004 29.88592529 C108.79303955 35.50795077 106.53230049 41.13488089 104.27246094 46.76220703 C103.85456425 47.8027593 103.43666756 48.84331158 103.00610733 49.91539574 C102.13552732 52.08313547 101.26495894 54.25087988 100.39440155 56.41862869 C98.11052086 62.10445099 95.82478344 67.78952667 93.5390625 73.47460938 C93.07363918 74.63226618 92.60821587 75.78992298 92.12868881 76.98266029 C89.77601859 82.83443647 87.42320037 88.68615313 85.0703125 94.5378418 C75.68585037 117.87770815 66.30479336 141.2188414 56.96875 164.578125 C50.50931663 180.73997391 44.03085577 196.89409027 37.5390625 213.04296875 C37.09303555 214.15251986 36.64700859 215.26207096 36.18746567 216.40524483 C32.5447206 225.4666346 28.90106422 234.52765786 25.25726318 243.58862305 C22.07986502 251.48987148 18.90289586 259.3912922 15.7265625 267.29296875 C15.05686684 268.95890327 15.05686684 268.95890327 14.37364197 270.65849304 C7.33365287 288.17311498 0.31709646 305.69702426 -6.68916702 323.2251606 C-14.05827811 341.65994266 -21.46121005 360.08086173 -28.88946533 378.49188232 C-30.38647356 382.20270867 -31.88264056 385.9138742 -33.37890625 389.625 C-36.25184255 396.75030732 -39.12560284 403.87528185 -42 411 C-44.54679507 409.72660247 -44.59355566 408.9253317 -45.54614258 406.29296875 C-45.98604271 405.09416328 -45.98604271 405.09416328 -46.43482971 403.87113953 C-46.75153122 402.98553848 -47.06823273 402.09993744 -47.39453125 401.1875 C-47.73399277 400.25666092 -48.07345428 399.32582184 -48.42320251 398.36677551 C-49.55946612 395.24683794 -50.68578333 392.12339665 -51.8125 389 C-52.6121427 386.80007865 -53.41261411 384.60045837 -54.21386719 382.40112305 C-55.48312135 378.9165481 -56.7517032 375.43173954 -58.01766968 371.94596863 C-62.44185191 359.76450115 -66.92361715 347.60449209 -71.41043091 335.44598389 C-72.74679112 331.82120385 -74.07982625 328.19521768 -75.41186523 324.56884766 C-79.3852096 313.75755502 -83.38166877 302.95730287 -87.4765625 292.19140625 C-88.46790221 289.56781356 -89.457951 286.94373839 -90.4473877 284.31942749 C-91.34641285 281.95033236 -92.26215964 279.58818693 -93.17871094 277.22583008 C-93.71118947 275.81495636 -94.24282266 274.40376319 -94.7734375 272.9921875 C-95.23153809 271.79964355 -95.68963867 270.60709961 -96.16162109 269.37841797 C-98.12319709 261.47384934 -94.45055261 254.25799245 -91.6796875 246.93359375 C-90.99468801 245.09642316 -90.30968851 243.25925257 -89.6246891 241.42208195 C-88.88976697 239.45525514 -88.15134914 237.48977413 -87.41186523 235.5246582 C-85.84897345 231.37125222 -84.29582085 227.2142459 -82.74414062 223.05664062 C-80.84937157 217.98156222 -78.95240381 212.90731698 -77.0525322 207.8341465 C-73.74080724 198.99023453 -70.44623929 190.14007394 -67.1640625 181.28515625 C-66.92937445 180.65201948 -66.69468639 180.01888271 -66.45288658 179.36655998 C-65.27315868 176.18361201 -64.09376188 173.00054149 -62.91452026 169.81741333 C-60.77180279 164.03404958 -58.62618498 158.25176168 -56.48079491 152.46938896 C-55.52287789 149.8874979 -54.56508405 147.30556115 -53.6072855 144.72362614 C-50.69772958 136.88038933 -47.78767879 129.03733616 -44.87755203 121.19431114 C-35.24582446 95.23588379 -25.6172393 69.27629918 -16 43.3125 C-15.59020905 42.20632324 -15.18041809 41.10014648 -14.75820923 39.96044922 C-13.5886134 36.80313125 -12.41926335 33.64572236 -11.25 30.48828125 C-10.92174728 29.60219681 -10.59349457 28.71611237 -10.2552948 27.80317688 C-6.82554554 18.53959119 -3.41493451 9.26910795 0 0 Z " fill="#000000" transform="translate(389,0)"/>
<path d="M0 0 C2.74575802 1.37287901 2.82648345 2.70709857 3.86914062 5.56835938 C4.23201172 6.55317291 4.59488281 7.53798645 4.96875 8.55264282 C5.360625 9.63870819 5.7525 10.72477356 6.15625 11.84375 C6.57068359 12.97452972 6.98511719 14.10530945 7.41210938 15.27035522 C8.54499821 18.36534049 9.6715204 21.46250845 10.79544067 24.56075287 C11.97483119 27.80693752 13.16252772 31.0500788 14.34960938 34.29345703 C16.29545024 39.61255763 18.23709892 44.9331692 20.17578125 50.25488281 C23.89248953 60.45561509 27.63764403 70.64586506 31.38412476 80.83569336 C32.49501849 83.86143188 33.602137 86.88852721 34.70825195 89.91601562 C38.08258594 99.14170395 41.49875847 108.3459196 45.04296875 117.5078125 C45.96754735 119.91780302 46.89090818 122.32825677 47.81396484 124.73883057 C48.65613482 126.91881038 49.5187554 129.08985548 50.3828125 131.26123047 C55.45065977 144.27443906 53.43456731 151.01829826 47.9375 163.5625 C47.46505859 164.66658203 46.99261719 165.77066406 46.50585938 166.90820312 C45.34783757 169.610254 44.17908533 172.30709036 43 175 C40.49531676 172.77580608 39.35929706 170.88376907 38.23266602 167.74291992 C37.7580896 166.43997231 37.7580896 166.43997231 37.27392578 165.11070251 C36.93731934 164.16022537 36.60071289 163.20974823 36.25390625 162.23046875 C35.70923706 160.72565697 35.70923706 160.72565697 35.15356445 159.19044495 C34.36427455 157.0070655 33.57879943 154.82230415 32.79666138 152.63635254 C31.11896642 147.94804951 29.42287103 143.26647346 27.72776794 138.58444214 C26.83895316 136.128987 25.95108057 133.67319063 25.06410217 131.21707153 C20.71646736 119.18492685 16.28748857 107.18352786 11.83746338 95.18893433 C10.56855129 91.76632204 9.30320583 88.34240881 8.03857422 84.91821289 C4.43685738 75.17734939 0.81118611 65.4497358 -2.9609375 55.7734375 C-3.54264264 54.26995098 -4.12411459 52.76637421 -4.70532227 51.26269531 C-5.73067191 48.61057908 -6.77738798 45.96858715 -7.83959961 43.33105469 C-12.55364994 31.16565237 -9.63058561 24.24885256 -4.9375 12.5 C-4.46505859 11.29601562 -3.99261719 10.09203125 -3.50585938 8.8515625 C-2.34541442 5.89770261 -1.17662157 2.94744499 0 0 Z " fill="#000000" transform="translate(280,295)"/>
</svg>
